<svg width="132" height="44" viewBox="0 0 132 44" fill="none" xmlns="http://www.w3.org/2000/svg">
<rect width="132" height="44" rx="5" fill="black"/>
<path fill-rule="evenodd" clip-rule="evenodd" d="M82.1473 31.9838C80.3491 31.9838 79.0331 31.0944 78.8817 29.7398L76.7891 29.7397C76.9212 32.2104 78.9665 33.7734 81.9958 33.7734C85.2335 33.7734 87.2691 32.1728 87.2691 29.6173C87.2691 27.6192 86.1047 26.4934 83.3021 25.8306L81.7971 25.4611C80.0364 25.0261 79.3167 24.4578 79.3167 23.4921C79.3167 22.2804 80.4436 21.4479 82.0903 21.4479C83.7371 21.4479 84.864 22.2707 84.9875 23.6339H87.0511C86.9845 21.2771 85.0058 19.6582 82.1194 19.6582C79.2029 19.6582 77.149 21.2771 77.149 23.6339C77.149 25.5374 78.3134 26.7105 80.8217 27.3163L82.592 27.7428C84.3623 28.1779 85.11 28.8127 85.11 29.873C85.11 31.0944 83.8703 31.9838 82.1473 31.9838ZM46.5336 29.8535H41.3269L40.0765 33.5456H37.8711L42.8028 19.8858H45.0941L50.0259 33.5456H47.7829L46.5336 29.8535ZM41.8662 28.1501H45.9934L43.9588 22.1581H43.9019L41.8662 28.1501ZM56.518 33.6498C59.0177 33.6498 60.6742 31.6614 60.6742 28.5666C60.6742 25.4804 59.008 23.4823 56.4804 23.4823C55.1798 23.4404 53.9614 24.1168 53.3093 25.243H53.2717V23.5865H51.293V36.8402H53.3372V31.9074H53.3845C54.0089 33.0406 55.2259 33.7174 56.518 33.6498ZM58.5762 28.5666C58.5762 26.5503 57.5342 25.2247 55.9443 25.2247C54.3824 25.2247 53.3318 26.5782 53.3318 28.5666C53.3318 30.5732 54.3824 31.917 55.9443 31.917C57.5342 31.917 58.5762 30.6011 58.5762 28.5666ZM67.4834 33.65C69.9831 33.65 71.6395 31.6616 71.6395 28.5668C71.6395 25.4806 69.9734 23.4825 67.4458 23.4825C66.1451 23.4406 64.9268 24.117 64.2747 25.2432H64.2371V23.5867H62.2584V36.8404H64.3026V31.9076H64.3499C64.9743 33.0408 66.1913 33.7176 67.4834 33.65ZM69.5372 28.5666C69.5372 26.5503 68.4952 25.2247 66.9054 25.2247C65.3435 25.2247 64.2929 26.5782 64.2929 28.5666C64.2929 30.5732 65.3435 31.917 66.9054 31.917C68.4952 31.917 69.5372 30.6011 69.5372 28.5666ZM91.6825 21.2296V23.5864H93.5763V25.2052H91.6825V30.6956C91.6825 31.5485 92.0617 31.946 92.8942 31.946C93.119 31.942 93.3435 31.9263 93.5666 31.8987V33.5078C93.1923 33.5778 92.8119 33.6095 92.4312 33.6024C90.4149 33.6024 89.6285 32.8451 89.6285 30.9136V25.2052H88.1805V23.5864H89.6285V21.2296H91.6825ZM99.3961 23.4639C96.5183 23.4639 94.6728 25.433 94.6728 28.5665C94.6728 31.7086 96.5 33.669 99.3961 33.669C102.293 33.669 104.121 31.7086 104.121 28.5665C104.121 25.4329 102.284 23.4639 99.3961 23.4639ZM102.036 28.5666C102.036 26.4171 101.051 25.1485 99.3947 25.1485C97.7383 25.1485 96.7543 26.4268 96.7543 28.5666C96.7543 30.7247 97.7383 31.9837 99.3947 31.9837C101.051 31.9837 102.036 30.7247 102.036 28.5666ZM107.755 23.5869H105.806L105.806 33.546H107.85V27.6388C107.782 27.0412 107.978 26.4437 108.388 26.0032C108.797 25.5627 109.379 25.3231 109.98 25.3475C110.291 25.3384 110.601 25.3802 110.899 25.4711V23.5589C110.669 23.5074 110.434 23.4818 110.198 23.4827C109.074 23.4398 108.075 24.1908 107.803 25.282H107.755V23.5869ZM120.324 30.6204C120.049 32.4283 118.289 33.669 116.036 33.669C113.139 33.669 111.341 31.7279 111.341 28.6137C111.341 25.4899 113.149 23.4639 115.95 23.4639C118.705 23.4639 120.438 25.3567 120.438 28.3763V29.0767H113.404V29.2003C113.339 29.9417 113.595 30.6756 114.107 31.2153C114.62 31.755 115.34 32.0485 116.083 32.0212C117.075 32.1141 118.011 31.5445 118.383 30.6204L120.324 30.6204ZM118.392 27.6479H113.413C113.411 26.9755 113.678 26.3303 114.155 25.8557C114.631 25.381 115.277 25.1163 115.949 25.1203C116.617 25.106 117.259 25.3706 117.723 25.8504C118.187 26.3302 118.429 26.9817 118.392 27.6479Z" fill="white"/>
<path fill-rule="evenodd" clip-rule="evenodd" d="M65.0045 9.28027H65.9821V16.1671H65.0045V9.28027ZM43.9252 10.5029C43.327 9.87115 42.4769 9.54097 41.6091 9.60325H39.2383V16.1668H41.6091C43.5642 16.1668 44.6975 14.9615 44.6975 12.8646C44.8069 12.0014 44.5235 11.1347 43.9252 10.5029ZM41.496 15.2388H40.2585V10.531H41.496C42.1129 10.4968 42.7129 10.7401 43.1317 11.1943C43.5506 11.6485 43.7446 12.2661 43.6606 12.8782C43.7512 13.4929 43.5599 14.1157 43.14 14.5736C42.7201 15.0315 42.1162 15.2759 41.496 15.2388ZM45.8506 13.6882C45.7656 12.8004 46.1914 11.9412 46.9492 11.4709C47.707 11.0006 48.6659 11.0006 49.4237 11.4709C50.1816 11.9412 50.6073 12.8004 50.5223 13.6882C50.6089 14.577 50.1836 15.4379 49.4251 15.9092C48.6666 16.3804 47.7063 16.3804 46.9478 15.9092C46.1893 15.4379 45.764 14.577 45.8506 13.6882ZM48.1871 11.9863C49.0335 11.9863 49.5159 12.6142 49.5159 13.6879H49.5159C49.5159 14.7659 49.0336 15.3932 48.1871 15.3932C47.3374 15.3932 46.8594 14.7702 46.8594 13.6879C46.8594 12.6142 47.3374 11.9863 48.1871 11.9863ZM56.7309 16.1671H55.7168L54.6931 12.519H54.6157L53.5963 16.1671H52.5919L51.2266 11.2139H52.2181L53.1054 14.9935H53.1784L54.1968 11.2139H55.1346L56.1529 14.9935H56.2303L57.1133 11.2139H58.0908L56.7309 16.1671ZM60.1788 11.2142H59.2377L59.2377 16.1674H60.2153V13.2697C60.1802 12.9401 60.2908 12.6116 60.5182 12.3703C60.7455 12.129 61.0669 11.9991 61.398 12.0145C62.1209 12.0145 62.4668 12.4104 62.4668 13.2063V16.1674H63.4444V12.9609C63.516 12.4766 63.3636 11.986 63.0301 11.6276C62.6965 11.2692 62.2181 11.0819 61.7299 11.1186C61.0994 11.0673 60.5058 11.4217 60.2518 12.0011H60.1788V11.2142ZM68.438 11.4709C67.6801 11.9411 67.2543 12.8004 67.3392 13.6883C67.2527 14.5771 67.6782 15.438 68.4367 15.9092C69.1952 16.3805 70.1555 16.3805 70.914 15.9092C71.6725 15.438 72.0979 14.5771 72.0115 13.6883C72.0964 12.8004 71.6706 11.9411 70.9127 11.4709C70.1548 11.0006 69.1959 11.0006 68.438 11.4709ZM71.0076 13.6884C71.0076 12.6147 70.5253 11.9868 69.6788 11.9868C68.8291 11.9868 68.3511 12.6147 68.3511 13.6884C68.3511 14.7707 68.8291 15.3937 69.6788 15.3937C70.5253 15.3937 71.0076 14.7663 71.0076 13.6884ZM74.8853 13.2875C73.7068 13.3606 73.043 13.8746 73.043 14.7662C73.0446 15.189 73.225 15.5913 73.5396 15.8737C73.8542 16.1562 74.2736 16.2923 74.694 16.2486C75.2939 16.2763 75.8622 15.9792 76.1818 15.4709H76.2592V16.167H77.2002V12.7827C77.2002 11.7364 76.4998 11.1182 75.258 11.1182C74.1344 11.1182 73.3341 11.6639 73.2342 12.5146H74.1806C74.2891 12.1645 74.6672 11.9641 75.2129 11.9641C75.8811 11.9641 76.227 12.2595 76.227 12.7827V13.2102L74.8853 13.2875ZM76.2245 14.3428V13.9287L75.0149 14.0061C74.3328 14.0517 74.0234 14.2837 74.0234 14.7204C74.0234 15.1662 74.4102 15.4256 74.9419 15.4256C75.2567 15.4575 75.571 15.3602 75.8128 15.1561C76.0546 14.952 76.2031 14.6585 76.2245 14.3428ZM80.5365 11.1317C79.2851 11.1317 78.4805 12.1232 78.4805 13.6883C78.4805 15.2572 79.2765 16.2488 80.5365 16.2487C81.1754 16.2723 81.7745 15.9394 82.092 15.3845H82.1693V16.1671H83.1061V9.28027H82.1285V12.0007H82.0555C81.7603 11.4412 81.1684 11.1026 80.5365 11.1317ZM79.493 13.6883C79.493 14.7388 79.9883 15.371 80.8165 15.371C81.6404 15.371 82.1496 14.7297 82.1496 13.6926C82.1496 12.6602 81.635 12.0098 80.8165 12.0098C79.9936 12.0098 79.493 12.6463 79.493 13.6883H79.493ZM88.2503 11.4709C87.4925 11.9411 87.0668 12.8004 87.1517 13.6882C87.0652 14.577 87.4905 15.4379 88.249 15.9091C89.0075 16.3804 89.9677 16.3804 90.7262 15.9091C91.4847 15.4379 91.91 14.577 91.8235 13.6882C91.9084 12.8004 91.4827 11.9411 90.7249 11.4709C89.9671 11.0006 89.0081 11.0006 88.2503 11.4709ZM90.8212 13.6884C90.8212 12.6147 90.3389 11.9868 89.4924 11.9868C88.6427 11.9868 88.1647 12.6147 88.1647 13.6884C88.1647 14.7707 88.6427 15.3937 89.4924 15.3937C90.3389 15.3937 90.8212 14.7663 90.8212 13.6884ZM94.0777 11.2138H93.1367V16.167H94.1143V13.2693C94.0792 12.9397 94.1898 12.6112 94.4171 12.3699C94.6445 12.1286 94.9658 11.9987 95.297 12.0141C96.0199 12.0141 96.3658 12.4099 96.3658 13.2059V16.167H97.3434V12.9605C97.415 12.4762 97.2626 11.9856 96.929 11.6272C96.5955 11.2688 96.1171 11.0815 95.6289 11.1182C94.9984 11.0669 94.4048 11.4213 94.1508 12.0007H94.0777V11.2138ZM102.867 9.98047V11.2362H103.94V12.0596H102.867V14.6066C102.867 15.1254 103.08 15.3526 103.567 15.3526C103.691 15.3522 103.816 15.3447 103.94 15.3301V16.1443C103.764 16.1757 103.586 16.1924 103.408 16.1943C102.321 16.1943 101.888 15.8119 101.888 14.8569V12.0596H101.102V11.2362H101.888V9.98047H102.867ZM106.246 9.28027H105.277L105.277 16.1671H106.255V13.2742C106.225 12.9343 106.346 12.5984 106.586 12.3563C106.827 12.1142 107.162 11.9906 107.502 12.0184C108.193 12.0184 108.561 12.4191 108.561 13.2103V16.1671H109.54V12.9691C109.605 12.4873 109.451 12.0017 109.121 11.6447C108.791 11.2876 108.319 11.0962 107.834 11.1226C107.194 11.0706 106.59 11.4255 106.324 12.0099H106.246V9.28027ZM115.238 14.8297C114.964 15.764 114.059 16.3677 113.091 16.2627C112.431 16.2801 111.796 16.0064 111.356 15.514C110.915 15.0217 110.713 14.3606 110.803 13.7061C110.715 13.0497 110.917 12.3876 111.355 11.8911C111.793 11.3946 112.425 11.1126 113.087 11.1183C114.465 11.1183 115.297 12.0599 115.297 13.6153V13.9564H111.799V14.0111C111.768 14.3787 111.894 14.7423 112.145 15.0124C112.396 15.2826 112.749 15.4342 113.118 15.4301C113.597 15.4876 114.062 15.2503 114.297 14.8297L115.238 14.8297ZM114.303 13.2337H111.801C111.796 12.8921 111.93 12.5632 112.172 12.3216C112.413 12.08 112.742 11.9462 113.083 11.9505C113.42 11.9428 113.745 12.0777 113.977 12.3221C114.209 12.5664 114.328 12.8975 114.303 13.2337Z" fill="white"/>
<path fill-rule="evenodd" clip-rule="evenodd" d="M25.473 9.5918C25.5795 10.9825 25.1397 12.3598 24.247 13.4315C23.3809 14.5087 22.0687 15.1291 20.6866 15.1149C20.5987 13.7643 21.0512 12.4341 21.9446 11.4174C22.8494 10.3869 24.1092 9.73504 25.473 9.5918ZM29.8419 17.763C28.2521 18.7404 27.2737 20.4642 27.2497 22.3303C27.252 24.4416 28.5163 26.3469 30.4609 27.1694C30.0869 28.3842 29.5232 29.5323 28.7906 30.5711C27.8068 32.0428 26.7753 33.4806 25.138 33.5072C24.3594 33.5252 23.8338 33.3013 23.2861 33.0679C22.7148 32.8246 22.1195 32.571 21.1879 32.571C20.2 32.571 19.578 32.8327 18.9782 33.0852C18.4598 33.3034 17.9579 33.5146 17.2506 33.5439C15.6914 33.6017 14.4998 31.9732 13.4802 30.5153C11.4423 27.538 9.85549 22.1248 11.9829 18.4416C12.9819 16.6464 14.8498 15.5073 16.9031 15.4409C17.7874 15.4227 18.636 15.7636 19.3799 16.0624C19.9489 16.2909 20.4566 16.4949 20.8724 16.4949C21.238 16.4949 21.7316 16.299 22.3068 16.0707C23.213 15.711 24.3218 15.271 25.4516 15.3896C27.2074 15.4445 28.8344 16.3241 29.8419 17.763Z" fill="white"/>
</svg>
