<svg width="149" height="44" viewBox="0 0 149 44" fill="none" xmlns="http://www.w3.org/2000/svg">
<rect width="148.5" height="44" rx="5" fill="black"/>
<path fill-rule="evenodd" clip-rule="evenodd" d="M52.5147 25.3659V27.3459H57.2667C57.1922 28.2784 56.8045 29.1584 56.1667 29.8429C55.2053 30.8221 53.8749 31.3495 52.5037 31.2949C49.5876 31.2949 47.2237 28.9309 47.2237 26.0149C47.2237 23.0988 49.5876 20.7349 52.5037 20.7349C53.8433 20.713 55.1368 21.2233 56.1007 22.1539L57.4977 20.7569C56.1831 19.4257 54.3855 18.6836 52.5147 18.6999C49.8515 18.5962 47.3451 19.9579 45.9827 22.2485C44.6203 24.5391 44.6203 27.3916 45.9827 29.6822C47.3451 31.9728 49.8515 33.3345 52.5147 33.2309C54.4196 33.3169 56.2687 32.5749 57.5857 31.1959C58.7381 29.9297 59.3534 28.2652 59.3017 26.5539C59.3052 26.1369 59.2684 25.7207 59.1917 25.3109L52.5147 25.3659ZM64.7148 23.9247C62.1343 23.9308 60.0467 26.0265 60.0508 28.607C60.0548 31.1875 62.1489 33.2767 64.7294 33.2747C67.3099 33.2726 69.4008 31.1802 69.4008 28.5997C69.4189 27.3505 68.9291 26.1475 68.0437 25.2661C67.1582 24.3848 65.9529 23.9007 64.7038 23.9247H64.7148ZM70.3047 28.6143C70.2966 26.0352 72.3787 23.9368 74.9577 23.9247C76.2068 23.9007 77.4121 24.3848 78.2976 25.2661C79.183 26.1475 79.6728 27.3505 79.6547 28.5997C79.6547 31.1787 77.566 33.2706 74.987 33.2746C72.4079 33.2786 70.3128 31.1933 70.3047 28.6143ZM72.1991 29.83C72.7015 30.8815 73.7955 31.519 74.9579 31.4377C75.6875 31.4208 76.3794 31.1099 76.8765 30.5755C77.3736 30.0412 77.6337 29.3287 77.5979 28.5997C77.5951 27.4345 76.8802 26.3893 75.7952 25.9642C74.7102 25.5391 73.4757 25.8205 72.682 26.6737C71.8883 27.5269 71.6968 28.7786 72.1991 29.83ZM61.948 29.8389C62.4539 30.8897 63.5511 31.524 64.7142 31.4382H64.7032C65.4328 31.4212 66.1246 31.1103 66.6217 30.576C67.1188 30.0416 67.379 29.3291 67.3432 28.6002C67.34 27.4339 66.6237 26.3884 65.5373 25.9642C64.451 25.5401 63.2157 25.8237 62.4232 26.6792C61.6307 27.5348 61.4422 28.7881 61.948 29.8389ZM98.3539 23.9248C100.178 23.992 101.771 25.1779 102.358 26.9058L102.589 27.4008L96.3299 29.9858C96.7222 30.8792 97.6209 31.442 98.5959 31.4048C99.5374 31.4072 100.411 30.9141 100.895 30.1068L102.49 31.2068C101.622 32.5064 100.159 33.2832 98.5959 33.2748C97.3535 33.293 96.1572 32.8052 95.2817 31.9235C94.4062 31.0418 93.9269 29.842 93.9539 28.5998C93.8779 27.386 94.3077 26.1948 95.1412 25.3092C95.9748 24.4236 97.1377 23.9224 98.3539 23.9248ZM95.9742 28.4683C95.9292 27.781 96.1627 27.1044 96.6221 26.5912C97.0815 26.078 97.7281 25.7713 98.4162 25.7403C99.1415 25.6925 99.8254 26.082 100.154 26.7303L95.9742 28.4683ZM92.9508 33.0002H90.8938V19.2502H92.9508V33.0002ZM87.5274 24.9701H87.4504C86.8233 24.2691 85.9269 23.8689 84.9864 23.8701C82.4895 23.9912 80.5273 26.0508 80.5273 28.5506C80.5273 31.0504 82.4895 33.11 84.9864 33.2311C85.93 33.247 86.8322 32.8442 87.4504 32.1311H87.5164V32.8021C87.5164 34.5951 86.5594 35.5521 85.0194 35.5521C83.9703 35.5276 83.0402 34.8713 82.6654 33.8911L80.8724 34.6391C81.5628 36.3186 83.2035 37.411 85.0194 37.4001C87.4284 37.4001 89.4194 35.9811 89.4194 32.5271V24.2001H87.5274V24.9701ZM85.1736 31.4374L85.177 31.4377H85.166L85.1736 31.4374ZM87.0272 30.5553C86.5551 31.0895 85.8857 31.408 85.1736 31.4374C83.7044 31.3062 82.5781 30.0751 82.5781 28.5997C82.5781 27.1232 83.7062 25.8913 85.177 25.7617C85.8877 25.7982 86.5536 26.1201 87.0237 26.6544C87.4938 27.1887 87.7283 27.8901 87.674 28.5997C87.7347 29.3126 87.5009 30.0192 87.0272 30.5553ZM111.991 19.2503H107.074V33.0003H109.131V27.7863H112.002C113.6 27.9011 115.128 27.1137 115.962 25.7458C116.796 24.3779 116.796 22.6587 115.962 21.2908C115.128 19.9229 113.6 19.1355 112.002 19.2503H111.991ZM109.125 25.8501H111.996L112.04 25.8831C113.343 25.8831 114.399 24.8267 114.399 23.5236C114.399 22.2204 113.343 21.1641 112.04 21.1641H109.125V25.8501ZM124.677 23.8702C123.146 23.7787 121.707 24.604 121.014 25.9712L122.84 26.7302C123.208 26.0522 123.941 25.6553 124.71 25.7182C125.237 25.6566 125.767 25.8094 126.181 26.1425C126.595 26.4755 126.857 26.9607 126.91 27.4892V27.6322C126.249 27.2824 125.512 27.101 124.765 27.1042C122.796 27.1042 120.805 28.2042 120.805 30.1952C120.844 31.0529 121.228 31.8582 121.871 32.428C122.513 32.9977 123.358 33.2835 124.215 33.2202C125.27 33.2959 126.282 32.7898 126.855 31.9002H126.921V33.0002H128.901V27.7092C128.901 25.3002 127.075 23.9032 124.732 23.9032L124.677 23.8702ZM122.817 30.2394C122.817 31.0644 123.752 31.4054 124.423 31.4054L124.478 31.4384C125.717 31.4082 126.744 30.4698 126.887 29.2384C126.316 28.9199 125.67 28.7603 125.017 28.7764C123.983 28.7764 122.817 29.1394 122.817 30.2394ZM136.117 24.2002L133.763 30.1622H133.697L131.255 24.2002H129.055L132.718 32.5382L130.628 37.1692H132.773L138.405 24.2002H136.117ZM119.682 33H117.625V19.25H119.682V33Z" fill="white"/>
<path fill-rule="evenodd" clip-rule="evenodd" d="M76.1296 13.4416C77.4684 14.7728 79.6309 14.7728 80.9696 13.4416C82.2729 12.0702 82.2729 9.91803 80.9696 8.54659C80.3294 7.90171 79.4583 7.53903 78.5496 7.53903C77.6409 7.53903 76.7698 7.90171 76.1296 8.54659C74.8319 9.92023 74.8319 12.0679 76.1296 13.4416ZM51.3345 13.4631C51.8991 12.8736 52.1973 12.0785 52.1595 11.2631C52.1596 11.0971 52.1449 10.9315 52.1155 10.7681H48.9145V11.5601H51.3015C51.2852 12.059 51.09 12.5353 50.7515 12.9021C49.9976 13.6309 48.8792 13.8345 47.9168 13.4183C46.9543 13.002 46.3368 12.0476 46.3515 10.9991C46.3276 10.3052 46.5874 9.63157 47.071 9.13344C47.5546 8.6353 48.2203 8.3557 48.9145 8.3591C49.6052 8.32136 50.2734 8.61065 50.7185 9.1401L51.3015 8.5571C51.0199 8.23322 50.6656 7.98065 50.2675 7.8201C49.84 7.63714 49.3796 7.54355 48.9145 7.5451C48.0022 7.52477 47.1221 7.88316 46.4835 8.5351C45.5007 9.52436 45.2067 11.0064 45.7374 12.2959C46.2681 13.5854 47.5201 14.4312 48.9145 14.4421C49.8237 14.4745 50.7036 14.1185 51.3345 13.4631ZM54.2316 8.51322H57.2016V7.69922H53.3516V14.2992H57.2016V13.4852H54.2316V11.3952H56.9376V10.6032H54.2316V8.51322ZM60.8044 14.2992H59.9574V8.51322H58.1094V7.69922H62.6964V8.51322H60.8044V14.2992ZM65.9336 7.69922V14.2992H66.7806V7.69922H65.9336ZM70.5417 14.2997H69.6947V8.51366H67.8467V7.69966H72.3787V8.51366H70.5417V14.2997ZM76.7576 12.8917C77.7491 13.879 79.3522 13.879 80.3436 12.8917C81.3174 11.8183 81.3174 10.1811 80.3436 9.10768C79.3522 8.12036 77.7491 8.12036 76.7576 9.10768C75.7839 10.1811 75.7839 11.8183 76.7576 12.8917ZM83.1376 7.69966V14.2997H83.9956V8.92066L87.3506 14.2997H88.2306V7.69966H87.3836V12.8367L84.1716 7.69966H83.1376Z" fill="white"/>
<path d="M80.9696 13.4416L81.0402 13.5125L81.0421 13.5105L80.9696 13.4416ZM76.1296 13.4416L76.0569 13.5103L76.0591 13.5125L76.1296 13.4416ZM80.9696 8.54659L81.0421 8.47769L81.0406 8.47614L80.9696 8.54659ZM76.1296 8.54659L76.0587 8.47612L76.057 8.47792L76.1296 8.54659ZM52.1595 11.2631L52.0594 11.2631L52.0596 11.2677L52.1595 11.2631ZM51.3345 13.4631L51.4066 13.5325L51.4068 13.5323L51.3345 13.4631ZM52.1155 10.7681L52.214 10.7504L52.1992 10.6681H52.1155V10.7681ZM48.9145 10.7681V10.6681H48.8145V10.7681H48.9145ZM48.9145 11.5601H48.8145V11.6601H48.9145V11.5601ZM51.3015 11.5601L51.4015 11.5634L51.4049 11.4601H51.3015V11.5601ZM50.7515 12.9021L50.8212 12.9741L50.825 12.9699L50.7515 12.9021ZM47.9168 13.4183L47.8771 13.5101L47.9168 13.4183ZM46.3515 10.9991L46.4517 11.0005L46.4515 10.9957L46.3515 10.9991ZM47.071 9.13344L46.9992 9.06378L47.071 9.13344ZM48.9145 8.3591L48.9141 8.45928L48.92 8.45896L48.9145 8.3591ZM50.7185 9.1401L50.642 9.20446L50.7122 9.28791L50.7893 9.21081L50.7185 9.1401ZM51.3015 8.5571L51.3723 8.62781L51.4382 8.56187L51.377 8.49149L51.3015 8.5571ZM50.2675 7.8201L50.2282 7.91206L50.2301 7.91284L50.2675 7.8201ZM48.9145 7.5451L48.9123 7.64511L48.9149 7.6451L48.9145 7.5451ZM46.4835 8.5351L46.5545 8.60559L46.555 8.60508L46.4835 8.5351ZM45.7374 12.2959L45.6449 12.334L45.7374 12.2959ZM48.9145 14.4421L48.9181 14.3421L48.9153 14.3421L48.9145 14.4421ZM57.2016 8.51322V8.61322H57.3016V8.51322H57.2016ZM54.2316 8.51322V8.41322H54.1316V8.51322H54.2316ZM57.2016 7.69922H57.3016V7.59922H57.2016V7.69922ZM53.3516 7.69922V7.59922H53.2516V7.69922H53.3516ZM53.3516 14.2992H53.2516V14.3992H53.3516V14.2992ZM57.2016 14.2992V14.3992H57.3016V14.2992H57.2016ZM57.2016 13.4852H57.3016V13.3852H57.2016V13.4852ZM54.2316 13.4852H54.1316V13.5852H54.2316V13.4852ZM54.2316 11.3952V11.2952H54.1316V11.3952H54.2316ZM56.9376 11.3952V11.4952H57.0376V11.3952H56.9376ZM56.9376 10.6032H57.0376V10.5032H56.9376V10.6032ZM54.2316 10.6032H54.1316V10.7032H54.2316V10.6032ZM59.9574 14.2992H59.8574V14.3992H59.9574V14.2992ZM60.8044 14.2992V14.3992H60.9044V14.2992H60.8044ZM59.9574 8.51322H60.0574V8.41322H59.9574V8.51322ZM58.1094 8.51322H58.0094V8.61322H58.1094V8.51322ZM58.1094 7.69922V7.59922H58.0094V7.69922H58.1094ZM62.6964 7.69922H62.7964V7.59922H62.6964V7.69922ZM62.6964 8.51322V8.61322H62.7964V8.51322H62.6964ZM60.8044 8.51322V8.41322H60.7044V8.51322H60.8044ZM65.9336 14.2992H65.8336V14.3992H65.9336V14.2992ZM65.9336 7.69922V7.59922H65.8336V7.69922H65.9336ZM66.7806 14.2992V14.3992H66.8806V14.2992H66.7806ZM66.7806 7.69922H66.8806V7.59922H66.7806V7.69922ZM69.6947 14.2997H69.5947V14.3997H69.6947V14.2997ZM70.5417 14.2997V14.3997H70.6417V14.2997H70.5417ZM69.6947 8.51366H69.7947V8.41366H69.6947V8.51366ZM67.8467 8.51366H67.7467V8.61366H67.8467V8.51366ZM67.8467 7.69966V7.59966H67.7467V7.69966H67.8467ZM72.3787 7.69966H72.4787V7.59966H72.3787V7.69966ZM72.3787 8.51366V8.61366H72.4787V8.51366H72.3787ZM70.5417 8.51366V8.41366H70.4417V8.51366H70.5417ZM80.3436 12.8917L80.4143 12.9626L80.4177 12.9589L80.3436 12.8917ZM76.7576 12.8917L76.6835 12.959L76.6871 12.9625L76.7576 12.8917ZM80.3436 9.10768L80.4178 9.0404L80.4142 9.03682L80.3436 9.10768ZM76.7576 9.10768L76.687 9.03673L76.6836 9.04049L76.7576 9.10768ZM83.1376 14.2997H83.0376V14.3997H83.1376V14.2997ZM83.1376 7.69966V7.59966H83.0376V7.69966H83.1376ZM83.9956 14.2997V14.3997H84.0956V14.2997H83.9956ZM83.9956 8.92066L84.0804 8.86774L83.8956 8.57138V8.92066H83.9956ZM87.3506 14.2997L87.2657 14.3526L87.2951 14.3997H87.3506V14.2997ZM88.2306 14.2997V14.3997H88.3306V14.2997H88.2306ZM88.2306 7.69966H88.3306V7.59966H88.2306V7.69966ZM87.3836 7.69966V7.59966H87.2836V7.69966H87.3836ZM87.3836 12.8367L87.2988 12.8897L87.4836 13.1852V12.8367H87.3836ZM84.1716 7.69966L84.2563 7.64665L84.227 7.59966H84.1716V7.69966ZM80.8991 13.3707C79.5994 14.6631 77.4999 14.6631 76.2002 13.3707L76.0591 13.5125C77.4368 14.8825 79.6624 14.8825 81.0402 13.5125L80.8991 13.3707ZM80.8972 8.61548C82.1637 9.94831 82.1637 12.0399 80.8972 13.3727L81.0421 13.5105C82.3821 12.1004 82.3821 9.88774 81.0421 8.47771L80.8972 8.61548ZM78.5496 7.63903C79.4317 7.63903 80.2773 7.99108 80.8987 8.61704L81.0406 8.47614C80.3816 7.81235 79.485 7.43903 78.5496 7.43903V7.63903ZM76.2006 8.61704C76.822 7.99108 77.6676 7.63903 78.5496 7.63903V7.43903C77.6143 7.43903 76.7176 7.81235 76.0587 8.47614L76.2006 8.61704ZM76.2023 13.3729C74.941 12.0378 74.941 9.95037 76.2023 8.61527L76.057 8.47792C74.7228 9.8901 74.7228 12.0981 76.057 13.5103L76.2023 13.3729ZM52.0596 11.2677C52.0962 12.0557 51.808 12.8242 51.2623 13.3939L51.4068 13.5323C51.9903 12.923 52.2985 12.1012 52.2594 11.2585L52.0596 11.2677ZM52.0171 10.7858C52.0454 10.9433 52.0596 11.103 52.0595 11.2631L52.2595 11.2631C52.2596 11.0912 52.2444 10.9196 52.214 10.7504L52.0171 10.7858ZM48.9145 10.8681H52.1155V10.6681H48.9145V10.8681ZM49.0145 11.5601V10.7681H48.8145V11.5601H49.0145ZM51.3015 11.4601H48.9145V11.6601H51.3015V11.4601ZM50.825 12.9699C51.1798 12.5855 51.3844 12.0862 51.4015 11.5634L51.2016 11.5568C51.1861 12.0317 51.0003 12.4851 50.6781 12.8343L50.825 12.9699ZM47.8771 13.5101C48.8766 13.9424 50.0381 13.7309 50.821 12.974L50.682 12.8302C49.9571 13.5309 48.8818 13.7267 47.9565 13.3265L47.8771 13.5101ZM46.2516 10.9977C46.2362 12.0866 46.8775 13.0778 47.8771 13.5101L47.9565 13.3265C47.0311 12.9263 46.4374 12.0086 46.4515 11.0005L46.2516 10.9977ZM46.9992 9.06378C46.4967 9.58144 46.2267 10.2815 46.2516 11.0026L46.4515 10.9957C46.4285 10.329 46.6781 9.68171 47.1427 9.20309L46.9992 9.06378ZM48.915 8.25911C48.1936 8.25557 47.5018 8.54612 46.9992 9.06378L47.1427 9.20309C47.6074 8.72448 48.247 8.45583 48.9141 8.4591L48.915 8.25911ZM50.7951 9.07575C50.3297 8.52223 49.6312 8.2198 48.9091 8.25925L48.92 8.45896C49.5793 8.42293 50.2171 8.69907 50.642 9.20446L50.7951 9.07575ZM51.2308 8.48639L50.6478 9.06939L50.7893 9.21081L51.3723 8.62781L51.2308 8.48639ZM50.2301 7.91284C50.6135 8.06748 50.9548 8.31075 51.2261 8.62272L51.377 8.49149C51.085 8.15568 50.7176 7.89382 50.3049 7.72736L50.2301 7.91284ZM48.9149 7.6451C49.3663 7.6436 49.8132 7.73444 50.2282 7.91204L50.3069 7.72817C49.8668 7.53984 49.3929 7.44351 48.9142 7.4451L48.9149 7.6451ZM46.555 8.60508C47.1742 7.97289 48.0276 7.62536 48.9123 7.64508L48.9168 7.44513C47.9768 7.42418 47.07 7.79343 46.4121 8.46513L46.555 8.60508ZM45.8299 12.2578C45.3145 11.0055 45.6 9.56629 46.5545 8.60558L46.4126 8.46462C45.4014 9.48243 45.0989 11.0072 45.6449 12.334L45.8299 12.2578ZM48.9153 14.3421C47.5611 14.3315 46.3453 13.5102 45.8299 12.2578L45.6449 12.334C46.1909 13.6607 47.4791 14.5309 48.9138 14.5421L48.9153 14.3421ZM51.2625 13.3938C50.6513 14.0287 49.7988 14.3735 48.9181 14.3422L48.911 14.542C49.8485 14.5754 50.756 14.2083 51.4066 13.5325L51.2625 13.3938ZM57.2016 8.41322H54.2316V8.61322H57.2016V8.41322ZM57.1016 7.69922V8.51322H57.3016V7.69922H57.1016ZM53.3516 7.79922H57.2016V7.59922H53.3516V7.79922ZM53.4516 14.2992V7.69922H53.2516V14.2992H53.4516ZM57.2016 14.1992H53.3516V14.3992H57.2016V14.1992ZM57.1016 13.4852V14.2992H57.3016V13.4852H57.1016ZM54.2316 13.5852H57.2016V13.3852H54.2316V13.5852ZM54.1316 11.3952V13.4852H54.3316V11.3952H54.1316ZM56.9376 11.2952H54.2316V11.4952H56.9376V11.2952ZM56.8376 10.6032V11.3952H57.0376V10.6032H56.8376ZM54.2316 10.7032H56.9376V10.5032H54.2316V10.7032ZM54.1316 8.51322V10.6032H54.3316V8.51322H54.1316ZM59.9574 14.3992H60.8044V14.1992H59.9574V14.3992ZM59.8574 8.51322V14.2992H60.0574V8.51322H59.8574ZM58.1094 8.61322H59.9574V8.41322H58.1094V8.61322ZM58.0094 7.69922V8.51322H58.2094V7.69922H58.0094ZM62.6964 7.59922H58.1094V7.79922H62.6964V7.59922ZM62.7964 8.51322V7.69922H62.5964V8.51322H62.7964ZM60.8044 8.61322H62.6964V8.41322H60.8044V8.61322ZM60.9044 14.2992V8.51322H60.7044V14.2992H60.9044ZM66.0336 14.2992V7.69922H65.8336V14.2992H66.0336ZM66.7806 14.1992H65.9336V14.3992H66.7806V14.1992ZM66.6806 7.69922V14.2992H66.8806V7.69922H66.6806ZM65.9336 7.79922H66.7806V7.59922H65.9336V7.79922ZM69.6947 14.3997H70.5417V14.1997H69.6947V14.3997ZM69.5947 8.51366V14.2997H69.7947V8.51366H69.5947ZM67.8467 8.61366H69.6947V8.41366H67.8467V8.61366ZM67.7467 7.69966V8.51366H67.9467V7.69966H67.7467ZM72.3787 7.59966H67.8467V7.79966H72.3787V7.59966ZM72.4787 8.51366V7.69966H72.2787V8.51366H72.4787ZM70.5417 8.61366H72.3787V8.41366H70.5417V8.61366ZM70.6417 14.2997V8.51366H70.4417V14.2997H70.6417ZM80.2731 12.8208C79.3206 13.7693 77.7806 13.7693 76.8282 12.8208L76.6871 12.9625C77.7175 13.9887 79.3837 13.9887 80.4142 12.9625L80.2731 12.8208ZM80.2696 9.17487C81.2087 10.2102 81.2087 11.7892 80.2696 12.8245L80.4177 12.9589C81.426 11.8473 81.426 10.152 80.4177 9.04049L80.2696 9.17487ZM76.8282 9.17854C77.7806 8.23007 79.3206 8.23007 80.2731 9.17854L80.4142 9.03682C79.3837 8.01064 77.7175 8.01064 76.6871 9.03682L76.8282 9.17854ZM76.8317 12.8245C75.8926 11.7892 75.8926 10.2102 76.8317 9.17487L76.6836 9.04049C75.6753 10.152 75.6753 11.8473 76.6836 12.9589L76.8317 12.8245ZM83.2376 14.2997V7.69966H83.0376V14.2997H83.2376ZM83.9956 14.1997H83.1376V14.3997H83.9956V14.1997ZM83.8956 8.92066V14.2997H84.0956V8.92066H83.8956ZM87.4354 14.2467L84.0804 8.86774L83.9107 8.97358L87.2657 14.3526L87.4354 14.2467ZM88.2306 14.1997H87.3506V14.3997H88.2306V14.1997ZM88.1306 7.69966V14.2997H88.3306V7.69966H88.1306ZM87.3836 7.79966H88.2306V7.59966H87.3836V7.79966ZM87.4836 12.8367V7.69966H87.2836V12.8367H87.4836ZM84.0868 7.75268L87.2988 12.8897L87.4683 12.7836L84.2563 7.64665L84.0868 7.75268ZM83.1376 7.79966H84.1716V7.59966H83.1376V7.79966Z" fill="white"/>
<path d="M11.4826 8.2938C11.1241 8.72402 10.9431 9.27477 10.9766 9.8338V34.1658C10.9431 34.7248 11.1241 35.2756 11.4826 35.7058L11.5596 35.7828L25.1886 22.1648V21.8458L11.5596 8.2168L11.4826 8.2938Z" fill="url(#paint0_linear)"/>
<path d="M29.6975 26.708L25.1875 22.165V21.846L29.6975 17.292L29.7965 17.347L35.1975 20.416C36.7375 21.285 36.7375 22.715 35.1975 23.595L29.8185 26.653L29.6975 26.708Z" fill="url(#paint1_linear)"/>
<path d="M29.8285 26.642L25.1865 22L11.4805 35.706C12.1281 36.2753 13.0891 36.303 13.7685 35.772L29.8395 26.642" fill="url(#paint2_linear)"/>
<path d="M29.8317 17.358L13.7607 8.22801C13.0813 7.69701 12.1202 7.72473 11.4727 8.29401L25.1897 22L29.8317 17.358Z" fill="url(#paint3_linear)"/>
<path opacity="0.2" d="M29.6965 26.543L13.7575 35.618C13.1052 36.1056 12.2097 36.1056 11.5575 35.618L11.4805 35.695L11.5575 35.772C12.2085 36.2633 13.1064 36.2633 13.7575 35.772L29.8285 26.642L29.6965 26.543Z" fill="black"/>
<path opacity="0.12" fill-rule="evenodd" clip-rule="evenodd" d="M29.7029 26.543L35.2029 23.43C35.7713 23.1495 36.1776 22.6213 36.3029 22C36.2463 22.6868 35.8267 23.291 35.2029 23.584L29.8019 26.642L29.7029 26.543ZM10.9781 34.2259C10.9963 34.7099 11.1739 35.1766 11.4865 35.5518L11.5635 35.6398L11.4865 35.7168C11.1385 35.2992 10.9578 34.768 10.9781 34.2259ZM10.9781 34.2259C10.9787 34.2095 10.9795 34.1931 10.9805 34.1768V34.0118C10.9762 34.0834 10.9754 34.1548 10.9781 34.2259Z" fill="black"/>
<path opacity="0.25" d="M13.7588 8.38169L35.1978 20.5697C35.7662 20.8502 36.1725 21.3784 36.2978 21.9997C36.2412 21.3128 35.8216 20.7087 35.1978 20.4157L13.7588 8.22769C12.2188 7.35869 10.9648 8.08469 10.9648 9.84469V10.0097C10.9978 8.23869 12.2298 7.51269 13.7588 8.38169Z" fill="white"/>
<defs>
<linearGradient id="paint0_linear" x1="19.2191" y1="-8.31507" x2="-2.60422" y2="-2.5111" gradientUnits="userSpaceOnUse">
<stop stop-color="#00A0FF"/>
<stop offset="0.01" stop-color="#00A1FF"/>
<stop offset="0.26" stop-color="#00BEFF"/>
<stop offset="0.51" stop-color="#00D2FF"/>
<stop offset="0.76" stop-color="#00DFFF"/>
<stop offset="1" stop-color="#00E3FF"/>
</linearGradient>
<linearGradient id="paint1_linear" x1="37.2105" y1="10.7796" x2="10.6015" y2="10.7796" gradientUnits="userSpaceOnUse">
<stop stop-color="#FFE000"/>
<stop offset="0.41" stop-color="#FFBD00"/>
<stop offset="0.78" stop-color="#FFA500"/>
<stop offset="1" stop-color="#FF9C00"/>
</linearGradient>
<linearGradient id="paint2_linear" x1="11.0777" y1="14.8803" x2="-6.45234" y2="44.3675" gradientUnits="userSpaceOnUse">
<stop stop-color="#FF3A44"/>
<stop offset="1" stop-color="#C31162"/>
</linearGradient>
<linearGradient id="paint3_linear" x1="0.780678" y1="4.50561" x2="8.60529" y2="17.6731" gradientUnits="userSpaceOnUse">
<stop stop-color="#32A071"/>
<stop offset="0.07" stop-color="#2DA771"/>
<stop offset="0.48" stop-color="#15CF74"/>
<stop offset="0.8" stop-color="#06E775"/>
<stop offset="1" stop-color="#00F076"/>
</linearGradient>
</defs>
</svg>
