<svg width="166" height="60" viewBox="0 0 166 60" fill="none" xmlns="http://www.w3.org/2000/svg">
<g clip-path="url(#clip0)">
<path fill-rule="evenodd" clip-rule="evenodd" d="M149.266 27.4238C145.887 27.4238 144.128 29.7805 144.128 32.9004C144.128 36.1143 145.887 38.2572 149.031 38.2572C152.174 38.2572 154.122 36.1623 154.122 32.8517C154.122 29.448 152.315 27.4238 149.266 27.4238ZM115.275 27.4238C111.896 27.4238 110.137 29.7805 110.137 32.9004C110.137 36.1143 111.896 38.2572 115.04 38.2572C118.184 38.2572 120.13 36.1623 120.13 32.8517C120.13 29.448 118.323 27.4238 115.275 27.4238ZM46.8312 31.8531H50.4438V35.305C49.3413 36.2812 47.652 36.6614 46.2918 36.6614C42.8902 36.6614 40.9438 34.4235 40.9438 30.4944C40.9438 26.3278 43.0307 24.0188 46.2453 24.0188C48.1685 24.0188 49.5994 24.7094 50.9602 26.0186L52.1562 24.6374C50.9363 23.2802 48.8486 22.2805 46.4563 22.2805C41.647 22.2805 38.8086 25.6853 38.8086 30.4473C38.8086 35.1138 41.178 38.3526 46.3149 38.3526C49.1537 38.3526 51.3587 37.0898 52.438 35.9V30.2561H46.8312V31.8531ZM100.097 38.0195H101.952V32.0673C101.952 30.3524 102.677 29.1611 104.438 29.1611C106.079 29.1611 106.595 29.8758 106.595 31.6144V38.0195H108.496V31.0661C108.496 28.6854 107.51 27.4472 105.283 27.4472C103.758 27.4472 102.631 28.0182 101.952 28.9952V22.4711H100.097V38.0195ZM99.1123 24.1375V22.4711H88.2736V24.1375H92.7078V38.0195H94.7487V24.1375H99.1123ZM155.857 38.0195H157.71V32.0673C157.71 30.3524 158.437 29.1611 160.196 29.1611C161.838 29.1611 162.356 29.8758 162.356 31.6144V38.0195H164.255V31.0661C164.255 28.6854 163.271 27.4472 161.041 27.4472C159.517 27.4472 158.389 28.0182 157.71 28.9952L157.476 27.6855H155.857V38.0195ZM70.9698 38.0195H72.8231V32.0673C72.8231 30.3524 73.5502 29.1611 75.3095 29.1611C76.9519 29.1611 77.4678 29.8758 77.4678 31.6144V38.0195H79.3677V31.0661C79.3677 28.6854 78.3829 27.4472 76.154 27.4472C74.6294 27.4472 73.5032 28.0182 72.8231 28.9952L72.5887 27.6855H70.9698V38.0195ZM128.364 38.0195H130.218V32.0673C130.218 30.3524 130.944 29.1611 132.704 29.1611C134.346 29.1611 134.862 29.8758 134.862 31.6144V38.0195H136.762V31.0661C136.762 28.6854 135.776 27.4472 133.549 27.4472C132.025 27.4472 130.898 28.0182 130.218 28.9952L129.983 27.6855H128.364V38.0195ZM149.124 36.6862C147.295 36.6862 146.122 35.3998 146.122 32.829C146.122 30.3758 147.341 28.9952 149.148 28.9952C150.979 28.9952 152.056 30.3524 152.056 32.9481C152.056 35.4471 150.931 36.6862 149.124 36.6862ZM115.133 36.6862C113.304 36.6862 112.13 35.3998 112.13 32.829C112.13 30.3758 113.351 28.9952 115.158 28.9952C116.986 28.9952 118.066 30.3524 118.066 32.9481C118.066 35.4471 116.94 36.6862 115.133 36.6862ZM143.448 29.3759V27.6855H141.359V24.7327L139.414 25.0432V27.6855H137.936V29.3759H139.414V35.948C139.414 37.4238 139.952 38.3049 142.087 38.3049C142.557 38.3049 143.26 38.2099 143.683 38.0903V36.6145C143.238 36.7331 142.814 36.7573 142.51 36.7573C141.619 36.7573 141.359 36.3289 141.359 35.3767V29.3759H143.448ZM86.1223 29.3759V27.6855H84.0359V24.7327L82.0887 25.0432V27.6855H80.6114V29.3759H82.0887V35.948C82.0887 37.4238 82.6287 38.3049 84.7633 38.3049C85.2332 38.3049 85.9354 38.2099 86.3578 38.0903V36.6145C85.9125 36.7331 85.4902 36.7573 85.1856 36.7573C84.2945 36.7573 84.0359 36.3289 84.0359 35.3767V29.3759H86.1223ZM121.842 38.0195H123.743V31.5433C123.743 30.0424 124.657 29.3519 125.83 29.3519C126.229 29.3519 126.628 29.3759 127.051 29.448V27.566C126.698 27.4472 126.371 27.4238 126.042 27.4238C124.987 27.4238 124.164 28.0659 123.743 28.9474L123.509 27.6855H121.842V38.0195ZM54.4552 38.0195H56.3556V31.5433C56.3556 30.0424 57.2702 29.3519 58.4431 29.3519C58.8415 29.3519 59.2408 29.3759 59.6631 29.448V27.566C59.3109 27.4472 58.9826 27.4238 58.6544 27.4238C57.5989 27.4238 56.7777 28.0659 56.3556 28.9474L56.121 27.6855H54.4552V38.0195ZM59.8272 35.2093C59.8272 36.6862 60.6715 38.2572 63.2992 38.2572C64.8236 38.2572 65.8794 37.6626 66.6066 36.7096L66.8647 38.0195H68.5067V30.9708C68.5067 27.9471 66.7238 27.4238 64.6128 27.4238C63.0176 27.4238 60.9298 27.8991 60.4138 30.3282H62.4311C62.6888 29.423 63.2992 28.8999 64.589 28.8999C65.6449 28.8999 66.6536 29.2808 66.6536 30.9943V31.7334H64.4252C61.7508 31.7334 59.8272 32.6383 59.8272 35.2093ZM63.9087 36.7573C62.4079 36.7573 61.8445 36.0904 61.8445 35.0192C61.8445 33.7812 62.5251 33.1382 64.3076 33.1382H66.6536V33.8521C66.6536 35.7334 65.5041 36.7573 63.9087 36.7573Z" fill="#232D41"/>
<path fill-rule="evenodd" clip-rule="evenodd" d="M29.2822 34.1422C28.3317 37.7842 26.0526 40.8547 22.8617 42.7843C22.8088 42.8167 22.7516 42.8483 22.6907 42.882L22.5853 42.9425C20.156 44.2351 16.3425 43.4328 13.5188 41.0306C12.1721 39.8841 9.36759 36.8752 10.1251 32.1964C11.3607 34.3463 13.0571 35.8648 15.081 36.6248C15.0828 36.6266 15.0849 36.6278 15.0878 36.6284C15.2084 36.6755 15.3312 36.719 15.4649 36.7612C19.7141 38.1327 23.9846 36.8565 26.8872 33.3456C27.9808 32.0223 28.7674 30.5262 29.214 29.0217C29.2161 29.014 29.2186 29.0069 29.2208 28.9993C29.2521 28.8918 29.2828 28.783 29.3118 28.6748C29.3181 28.6466 29.3245 28.6189 29.3326 28.5907C29.3534 28.5031 29.3767 28.4161 29.3957 28.3279C29.4079 28.2791 29.4167 28.2298 29.4276 28.1804C29.4416 28.114 29.4572 28.0487 29.4694 27.9828C29.4826 27.9146 29.493 27.8458 29.5052 27.7782C29.5059 27.7771 29.5059 27.7758 29.5059 27.7753C29.9009 29.8635 29.8324 32.0305 29.2822 34.1422ZM12.0123 44.3235C8.42276 43.3611 5.39867 41.0459 3.49719 37.8082C3.46188 37.7471 3.42586 37.6814 3.38894 37.6119L3.33554 37.5137C3.29611 37.4404 3.2608 37.3651 3.22604 37.2887C2.52297 35.7178 2.59591 33.6459 3.32926 31.6325C3.34073 31.6006 3.35185 31.5679 3.36385 31.5355C3.37031 31.5166 3.37837 31.4984 3.38643 31.4802C3.80813 30.375 4.42732 29.2903 5.22788 28.3213C5.96983 27.4237 7.5041 25.887 9.77656 25.1574C9.83319 25.1386 9.8918 25.1232 9.94843 25.1062C10.0128 25.0875 10.0764 25.0668 10.142 25.0491C10.2328 25.0244 10.3273 25.0027 10.4194 24.9798C10.4535 24.9727 10.4854 24.9634 10.5191 24.9558C11.5297 24.7283 12.6686 24.6695 13.929 24.881C11.8148 26.134 10.3198 27.8506 9.56974 29.9011C9.5667 29.9075 9.56276 29.9146 9.56043 29.9217C9.51813 30.0363 9.47637 30.1598 9.43354 30.2991C8.08118 34.6137 9.33981 38.9494 12.8007 41.8953C14.4634 43.3116 16.4027 44.2164 18.2834 44.5504C16.2273 44.9507 14.0923 44.882 12.0123 44.3235ZM1.98084 26.7965C2.92997 23.1532 5.2105 20.0845 8.40018 18.1533C8.46327 18.1156 8.53173 18.0774 8.60359 18.0374L8.68173 17.9926C10.1737 17.2008 12.1849 17.199 14.1675 17.8686C14.2046 17.882 14.2417 17.8939 14.2781 17.9062C14.291 17.911 14.3043 17.9162 14.3175 17.921C15.516 18.3472 16.6993 19.0178 17.747 19.911C19.0927 21.0557 21.8955 24.065 21.1378 28.7412C19.9035 26.5924 18.2076 25.0751 16.1832 24.3137C16.1798 24.3119 16.178 24.3097 16.1746 24.309C16.0547 24.2631 15.9283 24.2197 15.7998 24.178C13.6734 23.4913 11.5426 23.4684 9.58014 24.0545C9.56903 24.0585 9.55756 24.0621 9.5477 24.065C9.43533 24.0992 9.32476 24.1338 9.214 24.172C9.11722 24.2056 9.01937 24.2415 8.92206 24.2784C8.89948 24.2866 8.87636 24.2937 8.85324 24.3031C7.17524 24.9498 5.64312 26.0592 4.37284 27.5972C2.97818 29.284 2.08497 31.2532 1.75718 33.1628C1.36201 31.0746 1.42922 28.9071 1.98084 26.7965ZM19.2501 16.6135C22.8396 17.5781 25.8637 19.8928 27.7654 23.1297C27.7976 23.1855 27.8284 23.2414 27.8609 23.3007L27.9216 23.4126C28.034 23.6294 28.1295 23.858 28.2096 24.0951C28.2147 24.1098 28.2211 24.1245 28.2263 24.1398C28.2414 24.1896 28.2564 24.2391 28.2715 24.2902C28.2813 24.3261 28.2935 24.3619 28.3039 24.3979C28.3127 24.4314 28.3202 24.4654 28.3288 24.4989C28.3433 24.5531 28.3571 24.6076 28.37 24.6624C28.3752 24.684 28.3781 24.7064 28.3828 24.7277C28.3973 24.7952 28.4118 24.8634 28.4238 24.9329C28.4261 24.9427 28.4268 24.9534 28.429 24.9645C28.443 25.0451 28.4557 25.1262 28.4666 25.2085C28.4679 25.2139 28.4684 25.2208 28.469 25.2279C28.4801 25.3138 28.4894 25.4013 28.498 25.489V25.4919C28.531 25.8682 28.5346 26.2573 28.5091 26.6542C28.5091 26.6582 28.5079 26.6619 28.5079 26.6659C28.5016 26.7612 28.4944 26.857 28.484 26.9529C28.4835 26.9587 28.4829 26.9627 28.4824 26.9682C28.4726 27.0628 28.4609 27.1592 28.4482 27.255C28.4458 27.2738 28.4423 27.2927 28.4406 27.3114C28.4279 27.3931 28.4152 27.4755 28.4018 27.5595C28.3967 27.5906 28.389 27.6225 28.3838 27.653C28.3711 27.7236 28.3584 27.7942 28.3439 27.8653C28.3353 27.9075 28.3254 27.9488 28.3161 27.9905C28.3028 28.051 28.2901 28.1116 28.2756 28.1709C28.2616 28.2315 28.2448 28.2939 28.2294 28.3537C28.2182 28.3961 28.2084 28.4372 28.1975 28.4783C28.1754 28.5596 28.1505 28.6413 28.1261 28.7224C28.1199 28.7435 28.1145 28.7652 28.1082 28.7865C28.0804 28.8765 28.0509 28.9669 28.0202 29.0564C28.0166 29.0699 28.0132 29.0817 28.0086 29.0941C27.5897 30.3244 26.923 31.5395 26.0352 32.6149C24.9162 33.9706 21.9876 36.7801 17.4425 36.0734C17.4065 36.0689 17.3694 36.064 17.3346 36.0576C19.4512 34.8036 20.9467 33.0828 21.6973 31.0269C21.6985 31.0229 21.7009 31.0198 21.7027 31.0175C21.7477 30.8923 21.7889 30.7706 21.8296 30.6426C21.8717 30.5067 21.9118 30.3719 21.9487 30.2362C23.1014 26.0539 21.8145 21.8946 18.4601 19.0409C16.7977 17.6259 14.8586 16.7204 12.9777 16.3866C15.0351 15.9855 17.1703 16.0549 19.2501 16.6135ZM10.6122 30.3002C11.3433 28.3031 12.8926 26.6511 15.1197 25.5071C15.3566 25.3849 15.6851 25.3454 15.8032 25.3773C17.7708 26.1198 19.3954 27.6929 20.5204 29.9506C20.6403 30.1909 20.6786 30.5243 20.6483 30.6448C19.9162 32.6395 18.3662 34.2902 16.1437 35.432C15.9063 35.5532 15.5762 35.5926 15.4586 35.5621C13.4939 34.8196 11.868 33.2456 10.7433 30.9875C10.6255 30.7523 10.5855 30.429 10.6122 30.3002ZM28.907 22.8829C28.9052 22.8792 28.9023 22.8747 28.9012 22.8716C28.9 22.871 28.9 22.8705 28.8994 22.8705V22.87C28.8994 22.8692 28.8987 22.8681 28.8987 22.8681L28.8351 22.7528C28.7998 22.6864 28.7616 22.6195 28.7204 22.5489C26.6711 19.058 23.4079 16.56 19.5352 15.5212C15.6701 14.4818 11.6241 15.008 8.14426 17.002C8.14426 17.0026 8.14354 17.0038 8.14301 17.0044C8.11415 17.0197 8.06541 17.0473 8.06541 17.0473C7.99067 17.089 7.91253 17.1326 7.83314 17.1797C4.38789 19.2649 1.92798 22.576 0.90286 26.5065C-0.119567 30.4303 0.399442 34.5367 2.36257 38.0689C2.36419 38.0705 2.36598 38.0729 2.36759 38.0747C2.3839 38.1058 2.4106 38.1556 2.4106 38.1556C2.45164 38.2298 2.49322 38.3073 2.53856 38.3856C4.5913 41.8808 7.85411 44.377 11.7273 45.4175C15.586 46.4534 19.6227 45.9308 23.0968 43.9459C23.0979 43.9459 23.0991 43.9455 23.0997 43.9443C23.1049 43.9424 23.1136 43.9379 23.117 43.9361L23.2294 43.8713C23.2948 43.8348 23.3633 43.7973 23.4321 43.7556C26.8745 41.673 29.3349 38.3621 30.3597 34.4316C31.3802 30.512 30.8653 26.4119 28.907 22.8829Z" fill="#232D41"/>
</g>
<defs>
<clipPath id="clip0">
<rect width="165.785" height="60" fill="white" transform="translate(0.0273438)"/>
</clipPath>
</defs>
</svg>
